<svg width="180" height="180" viewBox="0 0 180 180" fill="none" xmlns="http://www.w3.org/2000/svg">
<path d="M67.5 165C71.6421 165 75 161.642 75 157.5C75 153.358 71.6421 150 67.5 150C63.3579 150 60 153.358 60 157.5C60 161.642 63.3579 165 67.5 165Z" stroke="black" stroke-width="5" stroke-linecap="round" stroke-linejoin="round"/>
<path d="M150 165C154.142 165 157.5 161.642 157.5 157.5C157.5 153.358 154.142 150 150 150C145.858 150 142.5 153.358 142.5 157.5C142.5 161.642 145.858 165 150 165Z" stroke="black" stroke-width="5" stroke-linecap="round" stroke-linejoin="round"/>
<path d="M7.5 7.5H37.5L57.6 107.925C58.2858 111.378 60.1643 114.48 62.9066 116.687C65.6489 118.895 69.0802 120.067 72.6 120H145.5C149.02 120.067 152.451 118.895 155.193 116.687C157.936 114.48 159.814 111.378 160.5 107.925L172.5 45H45" stroke="black" stroke-width="9" stroke-linecap="round" stroke-linejoin="round"/>
</svg>